<svg width="163" height="163" viewBox="0 0 163 163" fill="none" xmlns="http://www.w3.org/2000/svg">
<circle opacity="0.4" cx="81.5" cy="81.5" r="81.5" fill="#F7F0FF"/>
<circle opacity="0.2" cx="81.5" cy="81.5" r="56.5" fill="#E7D8FF"/>
<g clip-path="url(#clip0_12823_9093)">
<path fill-rule="evenodd" clip-rule="evenodd" d="M52.8892 89.7991C53.5503 92.1717 54.5087 94.4512 55.7417 96.5833C56.9713 98.7171 58.4658 100.687 60.1896 102.446C61.5428 101.565 63.1132 101.076 64.7271 101.033C66.341 100.99 67.9354 101.394 69.3338 102.201C70.7323 103.007 71.8803 104.185 72.6508 105.604C73.4213 107.023 73.7843 108.627 73.6996 110.239C78.4881 111.481 83.5138 111.483 88.3033 110.245C88.2178 108.633 88.5801 107.028 89.35 105.609C90.12 104.19 91.2675 103.012 92.6657 102.204C94.0639 101.397 95.6582 100.992 97.2721 101.035C98.8861 101.077 100.457 101.566 101.81 102.446C105.276 98.9168 107.787 94.5636 109.105 89.7962C107.667 89.0634 106.459 87.9469 105.616 86.5704C104.773 85.1939 104.327 83.6109 104.328 81.9967C104.328 80.3825 104.775 78.7999 105.619 77.424C106.464 76.0481 107.672 74.9326 109.111 74.2008C108.466 71.8791 107.521 69.6012 106.258 67.4166C104.998 65.2321 103.499 63.275 101.81 61.5541C100.457 62.4346 98.8867 62.9236 97.2729 62.9668C95.659 63.0101 94.0646 62.606 92.6662 61.7993C91.2677 60.9926 90.1197 59.8147 89.3492 58.396C88.5787 56.9773 88.2157 55.373 88.3004 53.7608C83.5119 52.5192 78.4861 52.5172 73.6967 53.755C73.7821 55.3672 73.4199 56.9717 72.6499 58.3908C71.88 59.81 70.7325 60.9884 69.3343 61.7957C67.9361 62.6031 66.3418 63.0078 64.7278 62.9652C63.1139 62.9225 61.5432 62.4342 60.1896 61.5541C56.7238 65.0832 54.2134 69.4364 52.895 74.2037C54.3333 74.9366 55.5408 76.053 56.3839 77.4296C57.2271 78.8061 57.673 80.389 57.6724 82.0032C57.6718 83.6174 57.2247 85.2 56.3805 86.5759C55.5363 87.9518 54.328 89.0673 52.8892 89.7991ZM78.8125 105.234C77.695 101.825 75.3581 98.9476 72.25 97.155C69.1443 95.3598 65.4854 94.7741 61.9746 95.51C61.1303 94.3181 60.398 93.0508 59.7871 91.7241C62.1292 89.1079 63.5 85.675 63.5 82C63.5026 78.4119 62.1804 74.9491 59.7871 72.2758C60.3941 70.9483 61.1246 69.6808 61.9687 68.49C65.4818 69.2265 69.1431 68.6396 72.25 66.8421C75.3592 65.0499 77.6972 62.1729 78.8154 58.7629C80.2708 58.6258 81.7321 58.6287 83.1875 58.7658C84.305 62.1753 86.6419 65.0523 89.75 66.845C92.8556 68.6401 96.5146 69.2259 100.025 68.49C100.87 69.6818 101.602 70.9492 102.213 72.2758C99.8708 74.8921 98.5 78.325 98.5 82C98.4974 85.5881 99.8196 89.0508 102.213 91.7241C101.606 93.0512 100.877 94.32 100.031 95.51C96.5182 94.7735 92.8569 95.3603 89.75 97.1579C86.6408 98.95 84.3028 101.827 83.1846 105.237C81.7292 105.374 80.2679 105.371 78.8125 105.234ZM78 69H83.8333V83.5833H78V69ZM78 89.4167H83.8333V95.25H78V89.4167Z" fill="#985EE5"/>
</g>
<defs>
<clipPath id="clip0_12823_9093">
<rect width="70" height="70" fill="white" transform="translate(46 47)"/>
</clipPath>
</defs>
</svg>
